<svg xmlns="http://www.w3.org/2000/svg" viewBox="0 0 400 400">
  <defs>
    <linearGradient id="bgC2" x1="0%" y1="0%" x2="100%" y2="100%">
      <stop offset="0%" style="stop-color:#fafafa"/>
      <stop offset="100%" style="stop-color:#f5f5f5"/>
    </linearGradient>
  </defs>
  <rect width="400" height="400" fill="url(#bgC2)"/>
  <!-- Left sleeve -->
  <path d="M100 130 L70 172 L112 186 L132 156 Z" fill="#212121"/>
  <!-- Right sleeve -->
  <path d="M300 130 L330 172 L288 186 L268 156 Z" fill="#212121"/>
  <!-- Body -->
  <path d="M132 120 Q162 108 200 105 Q238 108 268 120 L280 156 Q260 148 252 150 L252 290 Q226 298 200 298 Q174 298 148 290 L148 150 Q140 148 120 156 Z" fill="#212121"/>
  <!-- Collar -->
  <path d="M168 112 Q200 102 232 112 Q226 128 200 130 Q174 128 168 112 Z" fill="#1a1a1a"/>
  <!-- Three stripes - adidas style -->
  <path d="M148 155 L148 170 Q135 168 120 156 L132 150 Z" fill="white" opacity="0.7"/>
  <path d="M252 155 L252 170 Q265 168 280 156 L268 150 Z" fill="white" opacity="0.7"/>
  <!-- Adidas trefoil - simplified -->
  <text x="200" y="205" font-family="'Segoe UI',sans-serif" font-size="22" font-weight="900" text-anchor="middle" fill="rgba(255,255,255,0.35)">adidas</text>
  <!-- 3 stripes on side -->
  <rect x="149" y="175" width="8" height="80" rx="2" fill="white" opacity="0.4"/>
  <rect x="243" y="175" width="8" height="80" rx="2" fill="white" opacity="0.4"/>
  <text x="200" y="340" font-family="'Segoe UI',sans-serif" font-size="16" font-weight="700" text-anchor="middle" fill="#212121">Adidas Essential Tee</text>
  <text x="200" y="360" font-family="'Segoe UI',sans-serif" font-size="13" text-anchor="middle" fill="#9e9e9e">Bs 300</text>
</svg>
