<svg xmlns="http://www.w3.org/2000/svg" viewBox="0 0 400 400">
  <defs>
    <linearGradient id="bgC3" x1="0%" y1="0%" x2="100%" y2="100%">
      <stop offset="0%" style="stop-color:#fce4ec"/>
      <stop offset="100%" style="stop-color:#f8bbd9"/>
    </linearGradient>
    <linearGradient id="shirt3" x1="0%" y1="0%" x2="100%" y2="100%">
      <stop offset="0%" style="stop-color:#c62828"/>
      <stop offset="100%" style="stop-color:#b71c1c"/>
    </linearGradient>
  </defs>
  <rect width="400" height="400" fill="url(#bgC3)"/>
  <!-- Left sleeve -->
  <path d="M100 130 L70 172 L112 186 L132 156 Z" fill="url(#shirt3)"/>
  <!-- Right sleeve -->
  <path d="M300 130 L330 172 L288 186 L268 156 Z" fill="url(#shirt3)"/>
  <!-- Body -->
  <path d="M132 120 Q162 108 200 105 Q238 108 268 120 L280 156 Q260 148 252 150 L252 290 Q226 298 200 298 Q174 298 148 290 L148 150 Q140 148 120 156 Z" fill="url(#shirt3)"/>
  <!-- Collar -->
  <path d="M168 112 Q200 102 232 112 Q226 128 200 130 Q174 128 168 112 Z" fill="#b71c1c"/>
  <!-- UA logo area -->
  <text x="200" y="210" font-family="'Segoe UI',sans-serif" font-size="28" font-weight="900" text-anchor="middle" fill="rgba(255,255,255,0.35)">UA</text>
  <!-- Mesh pattern suggestion -->
  <line x1="150" y1="180" x2="250" y2="180" stroke="rgba(255,255,255,0.15)" stroke-width="1"/>
  <line x1="150" y1="195" x2="250" y2="195" stroke="rgba(255,255,255,0.15)" stroke-width="1"/>
  <line x1="150" y1="210" x2="250" y2="210" stroke="rgba(255,255,255,0.15)" stroke-width="1"/>
  <text x="200" y="340" font-family="'Segoe UI',sans-serif" font-size="15" font-weight="700" text-anchor="middle" fill="#c62828">Under Armour Tech 2.0</text>
  <text x="200" y="360" font-family="'Segoe UI',sans-serif" font-size="13" text-anchor="middle" fill="#9e9e9e">Bs 420</text>
</svg>
