<svg xmlns="http://www.w3.org/2000/svg" viewBox="0 0 400 400">
  <defs>
    <linearGradient id="bg3" x1="0%" y1="0%" x2="100%" y2="100%">
      <stop offset="0%" style="stop-color:#e3f2fd"/>
      <stop offset="100%" style="stop-color:#bbdefb"/>
    </linearGradient>
  </defs>
  <rect width="400" height="400" fill="url(#bg3)"/>
  <ellipse cx="200" cy="295" rx="120" ry="18" fill="rgba(0,0,0,0.12)"/>
  <!-- Sole with visible air unit -->
  <path d="M80 268 Q90 283 200 286 Q310 283 330 268 L325 256 Q310 270 200 273 Q90 270 85 256 Z" fill="#424242"/>
  <!-- Air bubble (visible unit) -->
  <ellipse cx="280" cy="264" rx="35" ry="14" fill="#29b6f6" opacity="0.85"/>
  <ellipse cx="280" cy="264" rx="28" ry="10" fill="#4fc3f7" opacity="0.6"/>
  <!-- Midsole -->
  <path d="M85 256 L325 256 L325 268 Q310 270 200 273 Q90 270 85 268 Z" fill="#eeeeee"/>
  <!-- Main upper -->
  <path d="M85 256 Q92 215 140 200 Q178 190 225 195 Q275 200 325 220 L325 256 Z" fill="#1565c0"/>
  <!-- Mesh overlay -->
  <path d="M140 200 Q185 192 235 197 L240 235 Q195 228 155 232 Z" fill="#1976d2"/>
  <!-- Swoosh -->
  <path d="M165 240 Q200 230 248 238 Q238 250 195 252 Q172 250 165 240 Z" fill="#ffffff" opacity="0.9"/>
  <!-- Heel -->
  <path d="M292 215 Q322 222 325 256 L310 260 Q305 240 300 225 Z" fill="#0d47a1"/>
  <!-- Laces -->
  <line x1="168" y1="208" x2="236" y2="206" stroke="#90caf9" stroke-width="2.5"/>
  <line x1="166" y1="216" x2="238" y2="214" stroke="#90caf9" stroke-width="2.5"/>
  <line x1="164" y1="224" x2="240" y2="222" stroke="#90caf9" stroke-width="2.5"/>
  <text x="200" y="335" font-family="'Segoe UI',sans-serif" font-size="16" font-weight="700" text-anchor="middle" fill="#1565c0">Nike Air Max 90</text>
  <text x="200" y="355" font-family="'Segoe UI',sans-serif" font-size="13" text-anchor="middle" fill="#9e9e9e">Bs 1350</text>
</svg>
